<?xml version="1.0" standalone="no"?>
<!DOCTYPE svg PUBLIC "-//W3C//DTD SVG 20010904//EN"
 "http://www.w3.org/TR/2001/REC-SVG-20010904/DTD/svg10.dtd">
<svg version="1.0" xmlns="http://www.w3.org/2000/svg"
 width="841.000000pt" height="841.000000pt" viewBox="0 0 841.000000 841.000000"
 preserveAspectRatio="xMidYMid meet">
<metadata>
Created by potrace 1.14, written by Peter Selinger 2001-2017
</metadata>
<g transform="translate(0.000000,841.000000) scale(0.100000,-0.100000)"
fill="#000000" stroke="none">
<path d="M3154 7650 c-3 -2 -17 -6 -31 -8 -15 -2 -34 -7 -42 -11 -9 -4 -28 -6
-43 -5 -16 2 -28 -1 -28 -7 0 -5 -3 -8 -7 -7 -15 3 -69 -15 -99 -33 -17 -10
-33 -16 -36 -14 -3 3 -11 -1 -18 -10 -7 -8 -19 -15 -27 -15 -7 0 -16 -7 -19
-15 -4 -8 -10 -12 -15 -9 -5 3 -12 -2 -15 -10 -3 -8 -14 -18 -25 -21 -11 -4
-17 -10 -14 -14 2 -4 -6 -13 -18 -20 -12 -7 -33 -28 -47 -48 -14 -19 -33 -44
-42 -54 -10 -10 -18 -25 -18 -33 0 -8 -7 -17 -16 -20 -8 -3 -13 -10 -9 -15 3
-5 1 -12 -5 -16 -6 -4 -8 -11 -5 -16 4 -5 2 -9 -2 -9 -7 0 -41 -78 -49 -110 0
-3 -3 -12 -7 -20 -15 -40 -29 -128 -31 -192 0 -27 -5 -48 -11 -48 -7 0 -7 -3
0 -8 13 -10 14 -195 0 -204 -7 -6 -7 -10 0 -15 9 -7 13 -209 5 -238 -1 -5 -1
-12 0 -15 8 -19 4 -206 -5 -212 -7 -6 -7 -10 0 -15 11 -9 14 -222 3 -239 -4
-6 -4 -14 -1 -18 10 -9 10 -215 1 -210 -5 3 -8 0 -8 -5 0 -6 3 -11 8 -11 6 0
9 -211 2 -235 -1 -5 -1 -12 0 -15 6 -15 4 -202 -2 -206 -5 -3 -4 -13 2 -23 6
-12 5 -22 -2 -29 -9 -9 -9 -12 0 -12 8 0 9 -7 2 -24 -5 -13 -6 -27 -3 -30 4
-3 1 -6 -7 -6 -10 0 -10 -4 1 -17 10 -11 10 -14 2 -9 -8 4 -13 2 -13 -4 0 -6
-4 -9 -9 -6 -5 3 -12 -1 -15 -10 -4 -9 -9 -14 -12 -11 -3 3 -16 -5 -29 -19
-12 -13 -25 -24 -28 -24 -7 0 -91 -83 -92 -90 0 -3 -3 -4 -7 -2 -5 1 -8 -2 -8
-7 0 -12 -47 -61 -60 -61 -6 0 -9 -4 -5 -9 3 -5 -5 -17 -17 -25 -12 -9 -19
-16 -14 -16 4 0 -6 -13 -23 -29 -17 -16 -31 -32 -31 -36 0 -4 -10 -16 -22 -26
-11 -11 -18 -19 -15 -19 4 0 -1 -8 -11 -18 -31 -34 -52 -62 -52 -72 0 -5 -7
-13 -16 -18 -9 -5 -15 -11 -14 -13 4 -8 -42 -79 -51 -79 -5 0 -9 -9 -9 -20 0
-11 -5 -20 -11 -20 -5 0 -7 -4 -4 -10 3 -6 1 -10 -4 -10 -6 0 -11 -7 -11 -16
0 -9 -5 -12 -12 -8 -7 5 -8 3 -4 -5 5 -7 0 -21 -10 -32 -9 -10 -14 -19 -10
-19 4 0 0 -7 -8 -16 -9 -8 -14 -20 -11 -25 4 -5 1 -9 -5 -9 -6 0 -9 -4 -5 -9
3 -6 -2 -14 -11 -19 -9 -5 -15 -13 -15 -18 2 -18 -11 -44 -21 -44 -5 0 -8 -7
-4 -15 3 -8 1 -15 -4 -15 -6 0 -9 -3 -8 -7 1 -5 -3 -18 -10 -30 -7 -13 -9 -23
-5 -23 4 0 0 -5 -10 -11 -9 -6 -15 -14 -12 -19 7 -11 -15 -61 -24 -55 -4 2 -8
-5 -9 -16 -4 -42 -6 -49 -13 -49 -4 0 -5 -9 -2 -20 3 -12 0 -20 -8 -20 -7 0
-10 -3 -6 -6 3 -4 0 -19 -9 -35 -8 -16 -12 -29 -9 -29 3 0 0 -10 -6 -22 -7
-13 -14 -36 -16 -53 -2 -16 -8 -32 -13 -33 -6 -2 -7 -8 -4 -13 3 -6 0 -17 -8
-26 -11 -14 -11 -16 2 -8 12 7 13 6 4 -6 -6 -8 -10 -22 -9 -31 2 -10 -1 -18
-7 -18 -6 0 -8 -7 -5 -15 4 -8 2 -17 -3 -20 -6 -4 -10 -24 -10 -45 0 -21 -4
-41 -8 -44 -4 -2 -8 -27 -7 -55 1 -28 -2 -51 -5 -51 -3 0 -6 -17 -5 -37 0 -21
-4 -41 -10 -45 -6 -5 -5 -8 3 -8 10 0 10 -5 2 -21 -8 -14 -11 -442 -11 -1496
1 -1160 -2 -1479 -12 -1492 -10 -12 -9 -13 1 -7 9 6 12 -11 11 -73 -1 -53 -5
-81 -13 -81 -7 0 -6 -4 3 -9 7 -5 9 -11 5 -14 -5 -3 -9 -31 -9 -64 l0 -58
2693 -3 2692 -2 0 137 c2 2097 -2 3053 -15 3153 -2 19 -6 53 -9 75 -3 22 -8
60 -11 85 -7 64 -31 185 -35 185 -1 0 -4 11 -5 25 -2 14 -10 45 -19 70 -9 25
-16 53 -16 63 0 9 -4 25 -9 35 -12 23 -45 135 -43 145 1 4 -3 7 -8 7 -5 0 -9
3 -8 8 3 9 -30 93 -54 141 -10 20 -18 41 -18 48 0 7 -4 13 -10 13 -5 0 -10 6
-10 13 0 18 -24 67 -32 67 -5 0 -8 6 -8 14 0 17 -40 89 -52 94 -4 2 -8 9 -8
16 0 7 -14 32 -30 54 -17 23 -27 42 -23 42 5 0 1 6 -7 13 -8 7 -21 24 -29 40
-8 15 -18 27 -23 27 -4 0 -8 7 -8 15 0 8 -3 15 -8 15 -4 0 -18 18 -32 40 -14
22 -28 40 -32 40 -5 0 -8 6 -8 13 0 7 -9 19 -20 27 -11 8 -20 20 -20 28 0 7
-5 10 -12 6 -8 -5 -9 -2 -5 10 4 9 3 15 -1 13 -4 -3 -20 8 -35 24 -16 16 -26
29 -22 29 3 0 -42 48 -102 108 -59 59 -106 110 -105 115 1 4 -5 7 -14 7 -24 0
-47 29 -51 63 -1 18 -4 444 -6 947 -2 503 -6 924 -9 935 -3 11 -13 49 -22 85
-27 107 -82 232 -111 252 -5 4 -7 8 -3 8 8 0 -15 30 -69 89 -18 19 -33 39 -33
45 0 5 -3 7 -6 3 -5 -5 -27 10 -59 41 -8 6 -18 12 -23 12 -5 0 -15 7 -22 15
-7 8 -16 12 -21 9 -5 -3 -9 0 -9 5 0 6 -4 11 -9 11 -5 0 -20 4 -33 9 -13 5
-26 9 -31 10 -4 0 -20 7 -37 16 -16 8 -44 15 -63 15 -18 0 -37 3 -41 7 -3 4
-21 8 -39 9 -17 0 -32 2 -32 4 0 7 -192 5 -202 -3 -7 -5 -13 -6 -13 -1 0 8
-85 11 -100 4 -3 -1 -9 -1 -15 0 -29 7 -245 4 -245 -3 0 -4 -5 -5 -11 -2 -17
11 -88 14 -95 4 -3 -5 -10 -6 -16 -3 -19 12 -218 11 -218 -1 0 -6 -3 -7 -8 0
-10 14 -305 14 -314 0 -5 -6 -8 -6 -8 0 0 11 -144 14 -155 3 -4 -4 -17 -3 -29
1 -11 4 -34 6 -51 4 -36 -4 -26 -4 -147 0 -54 2 -98 -1 -98 -6 0 -4 -5 -5 -10
-2 -22 14 -60 15 -60 3 0 -8 -3 -9 -8 -3 -9 13 -95 14 -104 0 -5 -7 -8 -7 -8
0 0 10 -186 15 -196 5z"/>
</g>
</svg>
